<?xml version="1.0" standalone="no"?>
<!DOCTYPE svg PUBLIC "-//W3C//DTD SVG 20010904//EN"
 "http://www.w3.org/TR/2001/REC-SVG-20010904/DTD/svg10.dtd">
<svg version="1.0" xmlns="http://www.w3.org/2000/svg"
 width="200.000000pt" height="200.000000pt" viewBox="0 0 200.000000 200.000000"
 preserveAspectRatio="xMidYMid meet">

<g transform="translate(0.000000,200.000000) scale(0.100000,-0.100000)"
fill="#000000" stroke="none">
<path d="M945 1705 c-20 -36 -39 -65 -42 -65 -3 0 -21 10 -40 21 -30 19 -36
20 -51 7 -9 -8 -71 -45 -137 -83 -229 -129 -325 -188 -325 -198 0 -6 16 -38
35 -73 l35 -62 -35 -22 -35 -22 0 -284 0 -284 80 0 80 0 0 -44 0 -43 118 -68
c64 -38 149 -87 187 -110 122 -72 186 -107 190 -104 1 2 19 32 39 66 39 66 49
72 80 48 29 -22 39 -19 129 34 45 26 151 88 235 137 170 99 169 98 116 175
-32 46 -30 65 6 84 l30 16 0 284 c0 325 9 299 -98 294 l-57 -3 -5 44 -5 44
-210 123 c-179 105 -267 153 -280 153 -2 0 -20 -29 -40 -65z m116 -13 c25 -15
121 -70 212 -122 l167 -95 -3 -264 -2 -265 -55 -32 c-30 -18 -58 -30 -62 -27
-5 2 -8 118 -8 256 l-1 252 -180 104 c-99 57 -182 108 -185 112 -3 5 2 20 11
34 8 14 22 36 30 50 19 31 19 31 76 -3z m-166 -281 c27 -16 51 -33 53 -39 3
-10 -32 -32 -183 -120 -94 -54 -116 -67 -182 -106 l-63 -37 0 -208 c0 -237 1
-234 -77 -229 l-48 3 -3 256 -2 256 25 17 c30 20 266 156 270 156 2 0 32 18
66 39 35 22 71 40 79 40 8 0 37 -13 65 -28z m240 -147 c71 -41 133 -81 137
-87 10 -15 10 -299 0 -313 -7 -11 -266 -164 -277 -164 -11 0 -270 154 -277
165 -4 5 -8 75 -8 155 0 80 4 150 8 156 4 6 57 40 117 76 140 83 148 87 160
88 6 0 69 -34 140 -76z m-282 -525 c67 -40 138 -81 157 -92 96 -56 136 -77
150 -77 14 0 81 37 273 149 48 28 92 51 97 51 10 0 60 -84 60 -102 0 -11 -158
-106 -383 -232 l-52 -29 -90 53 c-49 29 -112 66 -140 82 -27 16 -86 50 -130
76 l-80 47 -3 59 c-3 58 1 86 13 86 4 0 61 -32 128 -71z"/>
<path d="M932 1214 c-59 -41 -64 -120 -12 -173 26 -26 29 -33 20 -57 -6 -14
-15 -47 -21 -73 -5 -25 -12 -54 -15 -63 -5 -16 4 -18 91 -18 87 0 96 2 91 18
-3 9 -15 51 -26 92 l-22 76 31 33 c67 71 23 181 -73 181 -23 0 -52 -7 -64 -16z"/>
</g>
</svg>
